<svg width="100" height="100" viewBox="0 0 100 100" fill="none" xmlns="http://www.w3.org/2000/svg">
<rect width="100" height="100" fill="white"/>
<path d="M85.9982 50.0033L85.9382 50.6663L85.7588 51.671L85.4603 52.8587L85.0448 54.1775L84.5138 55.5956L83.8706 57.0911L83.1179 58.6451L82.2599 60.2429L81.3008 61.8701L80.2457 63.5141L79.0997 65.1638L77.8688 66.8075L76.5596 68.4353L75.1787 70.0373L73.7342 71.6036L72.2333 73.1258L70.6844 74.5952L69.0965 76.0037L67.4786 77.3438L65.8406 78.6083L64.1924 79.7906L62.5451 80.8844L60.9095 81.8843L59.2985 82.7852L57.7247 83.5823L56.2031 84.2714L54.7508 84.8495L53.3876 85.3136L52.1411 85.661L51.0515 85.8902L50.2043 86L49.6745 85.9898L48.7754 85.8599L47.6555 85.6109L46.3871 85.2437L45.0074 84.7604L43.542 84.1634L42.0106 83.4557L40.4296 82.6409L38.8134 81.7229L37.1751 80.7068L35.5268 79.5977L33.8796 78.401L32.2442 77.1236L30.6307 75.7715L29.0488 74.3522L27.5074 72.8732L26.0154 71.3432L24.5809 69.77L23.2118 68.1632L21.9153 66.5321L20.6982 64.8866L19.5671 63.2369L18.5276 61.5947L17.5852 59.9717L16.7446 58.3805L16.0101 56.8349L15.3855 55.3514L14.8739 53.948L14.4779 52.6487L14.1994 51.4871L14.0398 50.522L14 49.9418L14.0801 49.1879L14.2798 48.1469L14.598 46.9343L15.0332 45.5972L15.5831 44.1644L16.245 42.658L17.0156 41.0955L17.8909 39.492L18.8666 37.8611L19.9375 36.2152L21.0982 34.5659L22.3427 32.924L23.6645 31.2999L25.0564 29.7034L26.5111 28.1438L28.0207 26.6299L29.5767 25.1703L31.1703 23.7727L32.7922 22.4449L34.4327 21.1938L36.0815 20.0259L37.7278 18.9474L39.36 17.9638L40.9659 17.0802L42.5319 16.3009L44.0429 15.6301L45.482 15.071L46.8275 14.6265L48.0512 14.2989L49.1084 14.0897L49.895 14L50.4518 14.0303L51.3968 14.1803L52.5452 14.4495L53.8346 14.8363L55.2302 15.3389L56.708 15.9547L58.2488 16.6807L59.8367 17.5131L61.4573 18.4478L63.0983 19.48L64.7471 20.6043L66.3932 21.8149L68.0255 23.1056L69.6344 24.4695L71.21 25.8993L72.7436 27.3873L74.2268 28.9253L75.6506 30.5047L77.0081 32.1163L78.2918 33.7506L79.4948 35.3976L80.6108 37.0466L81.6344 38.6865L82.5599 40.3051L83.3831 41.8897L84.0992 43.426L84.7052 44.8976L85.1975 46.2851L85.5737 47.564L85.8323 48.6977L85.9718 49.6196L85.9982 50.0033Z" fill="#1F2933"/>
<path d="M29.7484 45.4964C31.4015 38.4704 41.4014 38.5189 43.2484 45.4964" stroke="white" stroke-width="2.25"/>
<path d="M56.7482 45.4964C58.4015 38.4704 68.4014 38.5189 70.2482 45.4964" stroke="white" stroke-width="2.25"/>
</svg>
