<svg width="100" height="100" viewBox="0 0 100 100" fill="none" xmlns="http://www.w3.org/2000/svg">
<path d="M93.9978 50.004L93.9245 50.8144L93.7052 52.0423L93.3404 53.494L92.8325 55.1058L92.1835 56.8391L91.3974 58.6669L90.4774 60.5662L89.4288 62.5191L88.2565 64.5079L86.967 66.5172L85.5663 68.5335L84.0619 70.5425L82.4617 72.532L80.774 74.49L79.0085 76.4044L77.174 78.2649L75.2809 80.0608L73.3402 81.7823L71.3627 83.4202L69.3607 84.9657L67.3463 86.4107L65.3329 87.7476L63.3338 88.9697L61.3648 90.0708L59.4413 91.045L57.5816 91.8873L55.8065 92.5938L54.1404 93.1611L52.6169 93.5857L51.2852 93.8658L50.2497 94L49.6022 93.9875L48.5033 93.8288L47.1345 93.5244L45.5842 93.0756L43.8979 92.4849L42.1068 91.7553L40.2351 90.8903L38.3028 89.8944L36.3275 88.7724L34.3252 87.5305L32.3105 86.175L30.2972 84.7123L28.2985 83.1511L26.3264 81.4985L24.3929 79.7638L22.5091 77.9561L20.6855 76.0861L18.9323 74.1633L17.2588 72.1995L15.6742 70.2059L14.1867 68.1947L12.8042 66.1784L11.5337 64.1713L10.3818 62.1876L9.35448 60.2428L8.45682 58.3538L7.69341 56.5406L7.06811 54.8253L6.58405 53.2373L6.24367 51.8176L6.04866 50.638L6 49.9289L6.09794 49.0074L6.34198 47.7351L6.73091 46.253L7.26277 44.6188L7.93491 42.8676L8.74392 41.0265L9.68573 39.1167L10.7556 37.1569L11.948 35.1636L13.257 33.1519L14.6756 31.1361L16.1967 29.1293L17.8121 27.1443L19.5134 25.193L21.2914 23.2868L23.1364 21.4366L25.0381 19.6525L26.9859 17.9445L28.9683 16.3216L30.9733 14.7924L32.9885 13.365L35.0006 12.0468L36.9956 10.8447L38.9583 9.76464L40.8723 8.81224L42.7191 7.99233L44.478 7.30903L46.1225 6.76578L47.6181 6.36531L48.9103 6.10962L49.8717 6L50.5522 6.03699L51.7072 6.22041L53.1108 6.54933L54.6867 7.02212L56.3925 7.6364L58.1987 8.38909L60.0819 9.27639L62.0226 10.2938L64.0034 11.4362L66.009 12.6977L68.0242 14.0719L70.0361 15.5516L72.0312 17.129L73.9976 18.796L75.9233 20.5436L77.7977 22.3623L79.6105 24.2421L81.3507 26.1724L83.0099 28.1422L84.5789 30.1397L86.0492 32.1526L87.4132 34.1681L88.6643 36.1723L89.7954 38.1507L90.8016 40.0875L91.6768 41.965L92.4175 43.7637L93.0192 45.4596L93.479 47.0227L93.795 48.4083L93.9655 49.5351L93.9978 50.004Z" fill="#4d3df7"/>
<path d="M25.248 44.4956C27.2685 35.9083 39.4906 35.9675 41.748 44.4956" stroke="white" stroke-width="2.75"/>
<path d="M58.2477 44.4956C60.2684 35.9083 72.4905 35.9675 74.7477 44.4956" stroke="white" stroke-width="2.75"/>
</svg>
