<svg data-v-48b4e325="" id="squircleSVG" viewBox="0 0 200 200" xmlns="http://www.w3.org/2000/svg" version="1.1" fill="#1f2933"><polygon data-v-48b4e325="" points="100,0,99.68648898800205,23.582334363791354,98.74556622871997,36.304180059151555,97.17596233137199,46.56715844158473,94.97521302728322,55.36149081758184,92.13908130768387,63.07034138116534,88.66062226037036,69.8830944630685,84.52871854988177,75.9051513196734,79.72577352471085,81.19917048023362,74.22397040302154,85.80381779611956,67.97890777507676,89.74341651511418,60.9180036974395,93.0333637610859,52.91724383267269,95.6833654358495,43.74759265322681,97.69945218668303,32.92078657172782,99.0852649801416,19.000984224324892,99.84287240298558,-10.910713014108289,99.97326452180573,-27.672447006714933,99.47660201860094,-39.49087525100662,98.35225767279134,-49.26448810780366,96.59865618543022,-57.714260222824485,94.21288891415821,-65.1467561800911,91.19004412149529,-71.72010805724484,87.52213965836397,-77.52439035273304,83.19645361965362,-82.613864008714,78.19287793615595,-87.02225437634125,72.47957481249688,-90.77084097119142,66.00545479385299,-93.87309146759381,58.686129682704525,-96.33746927572282,50.37474003641673,-98.16919879810891,40.791034563475385,-99.37139376120169,29.297239665604497,-99.94576869638287,13.617619456466597,-99.89305536106777,-16.844981796251886,-99.21318889610794,-31.416083754104,-97.90529107010929,-42.51107095320533,-95.96744819062445,-51.8510888488611,-93.39625082719067,-59.981128504769984,-90.18602275524395,-67.1503084351661,-86.32760452427479,-73.49175168719064,-81.80644833463954,-79.08279465372573,-76.59957310455616,-83.97054925678441,-70.67049800994477,-88.18446862767746,-63.96029571255857,-91.74317405462105,-56.37042318052836,-94.65843845230249,-47.725636747396685,-96.93763080021172,-37.67810033932169,-98.58526412262589,-25.3669939399162,-99.60398482532452,-6.373882414709889,-99.99518849313911,21.710958716054698,-99.75936427910584,34.89501667843115,-98.8962203691181,45.386720733802285,-97.40460878624553,54.33611002435887,-95.28223864399843,62.16673008918121,-92.5251348025849,69.08360543475578,-89.12675431224254,75.19958398499182,-85.07660070724243,80.581329093027,-80.35804593889173,85.26983434957765,-74.94481485085599,89.29084595520932,-68.79504561394508,92.66065888500002,-61.840573199959906,95.38955585574188,-53.96573469746225,97.48394135561901,-44.95951572050423,98.94770025720615,-34.38253736032717,99.78306352632377,-21.018375463913657" transform="translate(100 100)"></polygon></svg>