<svg data-v-48b4e325="" id="squircleSVG" viewBox="0 0 200 200" xmlns="http://www.w3.org/2000/svg" version="1.1" fill="#1f2933"><polygon data-v-48b4e325="" points="100,0,99.8748694630452,56.21069869923991,99.49789545402116,66.76251786992444,98.86420797922456,73.73043487425795,97.96526050854104,78.9958180671364,96.78810706900782,83.21091377392018,95.3142086664429,86.68488669449243,93.51751515352032,89.589716250565,91.36134787851631,92.03090601471254,88.79315601205725,94.07749859493309,85.73520788711693,95.77668171210088,82.06676856007053,97.16160743246651,77.5861836199898,98.25587585758605,71.91681925855985,99.07623310340361,64.2083106420158,99.63424144856097,51.57176188978359,99.93731575000014,-41.33747417785771,99.98933837110386,-59.91236540143983,99.79096574441616,-69.0403656415356,99.33967916183349,-75.40461421337857,98.6295882522757,-80.31777138478631,97.65095401016369,-84.29265872549145,96.38934654423143,-87.58642958573144,94.82427330456424,-90.3469604030225,92.9269738503016,-92.66694763678717,90.65680728023437,-94.60794169707476,87.95509160146621,-96.21241384966255,84.73395081327104,-97.5103626868381,80.85437385797786,-98.52316375262944,76.07769767433962,-99.26591030001552,69.93791520806151,-99.74886798853046,61.29106223158385,-99.97837174111993,45.15676803346763,-99.95734210719316,-49.15357727776138,-99.6855138323485,-63.0215932485416,-99.15941534549681,-71.09927804411129,-98.37209574919012,-76.95905122935235,-97.31255275155681,-81.56114888391453,-95.96475742709191,-85.31696439409117,-94.3060791045238,-88.44283216433146,-92.30474583054637,-91.0668261270096,-89.91564350615042,-93.27078647764476,-87.07304113787112,-95.10976329075878,-83.6771340434635,-96.62205886053856,-79.56676553553856,-97.83483910984813,-74.45643751705515,-98.76745085543615,-67.75876598754147,-99.43345652771303,-57.86983789309485,-99.84190055433606,-33.3623100313435,-99.9980813838869,54.38770732886563,-99.90397700317317,65.71687596167463,-99.5583987427852,72.97941220850346,-98.95689917624047,78.40911585721996,-98.09141874006421,82.73347427020717,-96.94960990294669,86.28807477358554,-95.51371261589152,89.25671641092312,-93.75874574670216,91.75103615297759,-91.64957603585192,93.84360296965649,-89.13601401940218,95.58379430972468,-86.14417551409363,97.00620937547701,-82.56011907862491,98.13545821710262,-78.19555923824679,98.98902930640386,-72.70472277575925,99.57906056168089,-65.33031421962527,99.91344010118115,-53.68913529873352" transform="translate(100 100)"></polygon></svg>