<svg  viewBox="0 0 24 24"  fill="none" xmlns="http://www.w3.org/2000/svg">
<path d="M23.9994 12.0011L23.9794 12.2221L23.9196 12.557L23.8201 12.9529L23.6816 13.3925L23.5046 13.8652L23.2902 14.3637L23.0393 14.8817L22.7533 15.4143L22.4336 15.9567L22.0819 16.5047L21.6999 17.0546L21.2896 17.6025L20.8532 18.1451L20.3929 18.6791L19.9114 19.2012L19.4111 19.7086L18.8948 20.1984L18.3655 20.6679L17.8262 21.1146L17.2802 21.5361L16.7308 21.9302L16.1817 22.2948L15.6365 22.6281L15.0995 22.9284L14.5749 23.1941L14.0677 23.4238L13.5836 23.6165L13.1292 23.7712L12.7137 23.887L12.3505 23.9634L12.0681 24L11.8915 23.9966L11.5918 23.9533L11.2185 23.8703L10.7957 23.7479L10.3358 23.5868L9.84732 23.3878L9.33685 23.1519L8.80986 22.8803L8.27114 22.5743L7.72505 22.2356L7.17559 21.8659L6.62652 21.467L6.0814 21.0412L5.54357 20.5905L5.01625 20.1174L4.50247 19.6244L4.00513 19.1144L3.52698 18.59L3.07059 18.0544L2.63842 17.5107L2.23275 16.9622L1.85569 16.4123L1.5092 15.8649L1.19505 15.3239L0.914857 14.7935L0.670042 14.2783L0.46184 13.7838L0.291303 13.316L0.159286 12.8829L0.0664545 12.4957L0.0132697 12.174L0 11.9806L0.0267096 11.7293L0.0932675 11.3823L0.199339 10.9781L0.344393 10.5324L0.527702 10.0548L0.748343 9.55267L1.0052 9.03184L1.29698 8.49734L1.62219 7.95371L1.97917 7.40507L2.36608 6.85529L2.78091 6.308L3.22149 5.76664L3.68547 5.23446L4.17038 4.71459L4.67356 4.20997L5.19222 3.72342L5.72342 3.25758L6.26407 2.81497L6.81091 2.39793L7.36051 2.00864L7.90926 1.64914L8.45334 1.32127L8.98862 1.02672L9.51062 0.766974L10.0143 0.543362L10.494 0.357007L10.9425 0.208849L11.3504 0.0996298L11.7028 0.0298969L11.965 0L12.1506 0.0100883L12.4656 0.0601106L12.8484 0.149818L13.2782 0.27876L13.7434 0.446292L14.236 0.65157L14.7496 0.893561L15.2789 1.17104L15.8191 1.4826L16.3661 1.82665L16.9157 2.20142L17.4644 2.60497L18.0085 3.03519L18.5448 3.48982L19.07 3.96643L19.5812 4.46244L20.0756 4.97511L20.5502 5.50157L21.0027 6.03878L21.4306 6.58355L21.8316 7.13254L22.2036 7.6822L22.5448 8.22882L22.8533 8.76838L23.1277 9.29658L23.3664 9.80865L23.5684 10.2992L23.7325 10.7617L23.8579 11.188L23.9441 11.5659L23.9906 11.8732L23.9994 12.0011Z" />
<path d="M5.24944 10.4988V10.4988C5.80049 8.1568 9.13378 8.17295 9.74944 10.4988V10.4988" stroke="white" stroke-width="0.75"/>
<path d="M14.2494 10.4988V10.4988C14.8005 8.1568 18.1338 8.17295 18.7494 10.4988V10.4988" stroke="white" stroke-width="0.75"/>
</svg>
