<svg data-v-48b4e325="" id="squircleSVG" viewBox="0 0 200 200" xmlns="http://www.w3.org/2000/svg" version="1.1" fill="#1f2933"><polygon data-v-48b4e325="" points="100,0,99.27677927811736,3.5454818566787756,97.12408186127406,9.611657851849277,93.5925133577962,17.089723889666082,88.76546747466554,25.49180484895216,82.75774984648432,34.456967278274625,75.71375102448377,43.6768704120858,67.80528234171975,52.873214710749174,59.22924838646564,61.79025474827987,50.205428901495594,70.19307523351286,40.97482730862196,77.8683693793623,31.799429039587878,84.62631998061269,22.965130998207652,90.30288613844093,14.792164123168755,94.76210579786107,7.666319572879081,97.89817621231157,2.1519045692329066,99.63715896739879,-0.5969072846227469,99.93820925899423,-5.131453342519781,98.79426684054228,-11.67519782187892,96.23217626195229,-19.465399343181645,92.31223094638852,-28.066190892683192,87.12716206159963,-37.136046427432326,80.80062158825602,-46.37676195332798,73.485242905343,-55.51704643226443,65.36040756701813,-64.30726604023538,56.62991554926173,-72.51866831372578,47.51987359879037,-79.94458409782568,38.27734229560862,-86.40248101350365,29.170772611820396,-91.73628646421335,20.494478710372736,-95.8186452972399,12.582984596132018,-98.55290370783213,5.854902933028711,-99.87468381465197,0.9963073609829133,-99.75296075340205,-1.6289726712183445,-98.19058906944977,-6.880493434435817,-95.22425409557094,-13.843550303252075,-90.92385051837094,-21.909676785824058,-85.3913170615005,-30.680321851896014,-78.75898582945351,-39.82953046668402,-71.18754132246588,-49.06795076482095,-62.86373465802664,-58.130888487602384,-53.99807778498447,-66.77476972897767,-44.82288287256339,-74.77711410881605,-35.591291817644574,-81.93806880285229,-26.578570368922012,-88.08258646352957,-18.088575402623754,-93.06275665602442,-10.47345053741033,-96.76000118962149,-4.196736343029235,-99.08695005302664,-0.17229287851046268,-99.98887809957985,2.9286739567630544,-99.44462545461492,8.771109841408409,-97.46695729449061,16.10492161278658,-94.10234654984006,24.41362183831618,-89.43018941096611,33.32651691267118,-83.56149077383515,42.53046879397815,-76.63708787660553,51.74403882795785,-68.82551998249993,60.70885519939432,-60.320708852341795,69.18741305019658,-51.339707255814794,76.96364044913693,-42.12094241725546,83.84468966969453,-32.92373120742905,89.66319904485016,-24.030662222622997,94.27960868986915,-15.75667147298539,97.58427812910405,-8.476204615338395,99.49924416582459,-2.717215682514804" transform="translate(100 100)"></polygon></svg>